<svg width="40" height="40" viewBox="0 0 40 40" fill="none" xmlns="http://www.w3.org/2000/svg" role="img" aria-label="NexusIQ">
  <defs>
    <linearGradient id="brand-grad" x1="8" y1="6" x2="34" y2="36" gradientUnits="userSpaceOnUse">
      <stop stop-color="#3b82f6"/>
      <stop offset="0.55" stop-color="#6366f1"/>
      <stop offset="1" stop-color="#8b5cf6"/>
    </linearGradient>
    <linearGradient id="brand-ring" x1="0" y1="0" x2="40" y2="40" gradientUnits="userSpaceOnUse">
      <stop stop-color="#3b82f6" stop-opacity="0.35"/>
      <stop offset="1" stop-color="#8b5cf6" stop-opacity="0.15"/>
    </linearGradient>
  </defs>
  <circle cx="20" cy="20" r="17" stroke="url(#brand-ring)" stroke-width="0.75" stroke-dasharray="3 4"/>
  <g stroke="#3b82f6" stroke-width="1.1" stroke-linecap="round" opacity="0.45">
    <line x1="20" y1="20" x2="20" y2="7"/>
    <line x1="20" y1="20" x2="32.4" y2="13"/>
    <line x1="20" y1="20" x2="28.8" y2="27"/>
    <line x1="20" y1="20" x2="11.2" y2="27"/>
    <line x1="20" y1="20" x2="7.6" y2="13"/>
    <path d="M20 7 L32.4 13 L28.8 27 L11.2 27 L7.6 13 Z" stroke-opacity="0.25" fill="none"/>
  </g>
  <g fill="#f1f5f9">
    <circle cx="20" cy="7" r="2.2"/>
    <circle cx="32.4" cy="13" r="2.2"/>
    <circle cx="28.8" cy="27" r="2.2"/>
    <circle cx="11.2" cy="27" r="2.2"/>
    <circle cx="7.6" cy="13" r="2.2"/>
  </g>
  <circle cx="20" cy="20" r="6.5" fill="url(#brand-grad)"/>
  <circle cx="20" cy="20" r="6.5" fill="white" fill-opacity="0.12"/>
  <path d="M20 16.2 L21.4 19.2 L24.6 19.6 L22.2 21.8 L22.9 25 L20 23.4 L17.1 25 L17.8 21.8 L15.4 19.6 L18.6 19.2 Z" fill="white" fill-opacity="0.92"/>
</svg>
